<svg width="73" height="73" viewBox="0 0 73 73" fill="none" xmlns="http://www.w3.org/2000/svg">
<g clip-path="url(#clip0_1185_19054)">
<path d="M31.6974 35.5633C36.6984 37.3522 41.7877 38.8837 46.9455 40.1516L54.8211 26.8499C54.8211 26.8499 44.7198 15.7363 39.0191 12.361C36.4771 10.8656 33.4778 10.3462 30.581 10.8997C27.6841 11.4532 25.0876 13.0419 23.2761 15.3692C21.4645 17.6965 20.5616 20.6034 20.7359 23.5475C20.9102 26.4916 22.1497 29.2717 24.2232 31.369L18.9424 44.1025L20.8426 45.2276C20.3823 46.1783 20.156 47.2253 20.1826 48.2812C20.2092 49.3372 20.4879 50.3715 20.9955 51.2978C21.5667 52.3439 21.8596 53.5192 21.846 54.7111C21.8324 55.9029 21.5128 57.0713 20.9178 58.1041L22.8181 59.2292C23.5845 57.915 24.0092 56.4296 24.0532 54.9089C24.0973 53.3882 23.7593 51.8807 23.0702 50.5244C22.3588 48.6917 22.034 47.5499 22.7428 46.3527L24.6431 47.4778L31.6974 35.5633ZM26.1802 18.8745C27.2246 17.1106 28.9269 15.8338 30.9127 15.325C32.8984 14.8162 35.005 15.1171 36.7689 16.1615C41.3349 19.4812 45.5453 23.2642 49.333 27.4501L44.8326 35.051C39.3411 33.7428 33.9995 31.8702 28.8932 29.4632C27.1293 28.4188 25.8525 26.7165 25.3437 24.7307C24.835 22.745 25.1359 20.6384 26.1802 18.8745ZM58.6968 41.9766C57.2004 41.1405 55.9569 39.9166 55.0971 38.4337C54.4186 37.2354 53.4236 36.2468 52.221 35.576L53.3461 33.6757C54.8425 34.5118 56.086 35.7357 56.9458 37.2186C57.6243 38.4169 58.6193 39.4055 59.8219 40.0763L58.6968 41.9766ZM62.0721 36.2759C60.8695 35.605 59.8745 34.6164 59.196 33.4181C58.3362 31.9352 57.0927 30.7113 55.5963 29.8752L54.4712 31.7755C55.6738 32.4463 56.6688 33.4349 57.3473 34.6333C58.2071 36.1162 59.4506 37.34 60.947 38.1761L62.0721 36.2759ZM57.5717 43.8768C56.3691 43.206 55.3741 42.2173 54.6956 41.019C53.8358 39.5361 52.5923 38.3123 51.0959 37.4762L49.9708 39.3764C51.1734 40.0472 52.1684 41.0359 52.8469 42.2342C53.7068 43.7171 54.9502 44.9409 56.4466 45.777L57.5717 43.8768ZM35.6814 24.5C35.3476 25.0637 34.8542 25.5158 34.2634 25.7991C33.6727 26.0824 33.0112 26.1842 32.3627 26.0916C31.7141 25.9989 31.1076 25.716 30.6198 25.2787C30.132 24.8413 29.7848 24.2692 29.6222 23.6345C29.4596 22.9999 29.4888 22.3312 29.7062 21.7132C29.9236 21.0952 30.3194 20.5555 30.8435 20.1624C31.3676 19.7693 31.9965 19.5404 32.6507 19.5048C33.3049 19.4691 33.9549 19.6282 34.5187 19.962C35.2747 20.4096 35.8219 21.1391 36.0399 21.9902C36.258 22.8412 36.129 23.744 35.6814 24.5Z" fill="url(#paint0_radial_1185_19054)"/>
</g>
<defs>
<radialGradient id="paint0_radial_1185_19054" cx="0" cy="0" r="1" gradientUnits="userSpaceOnUse" gradientTransform="translate(35.2088 38.3353) rotate(120.629) scale(24.2917 22.0663)">
<stop stop-color="white"/>
<stop offset="1" stop-color="white" stop-opacity="0.47"/>
</radialGradient>
<clipPath id="clip0_1185_19054">
<rect width="53" height="53" fill="white" transform="translate(27.0176 0.122559) rotate(30.629)"/>
</clipPath>
</defs>
</svg>
