<svg width="50" height="51" viewBox="0 0 50 51" fill="none" xmlns="http://www.w3.org/2000/svg">
<path d="M20.352 17.9274L3.75621 0.83019C3.56313 0.627677 3.33213 0.467867 3.07647 0.357784C2.8208 0.247702 2.54718 0.187507 2.27227 0.180952C1.99394 0.17767 1.71775 0.224755 1.46041 0.325959C1.20633 0.430596 0.964548 0.582487 0.76874 0.775727C0.572932 0.968968 0.413121 1.19996 0.303039 1.45563C0.192956 1.71129 0.132762 1.98492 0.129479 2.26325C0.126197 2.54159 0.176714 2.8145 0.281191 3.07528C0.382396 3.33263 0.537879 3.56443 0.734392 3.76367L18.584 22.1554L21.7795 25.4451L28.9625 32.8485C27.2988 35.0965 26.5379 37.886 26.8204 40.6702C27.1063 43.4511 28.4167 46.0283 30.5023 47.8928C32.5845 49.7605 35.2873 50.7809 38.0853 50.7604C40.8834 50.74 43.5688 49.6736 45.6267 47.7771C47.6779 45.8804 48.9541 43.281 49.195 40.4959C49.4392 37.7075 48.6333 34.931 46.9353 32.7101C45.2407 30.486 42.7777 28.9748 40.0256 28.4732C37.2735 27.9715 34.4329 28.5109 32.0597 29.9872L23.5474 21.2171L23.5543 21.2106L20.352 17.9274ZM31.0752 40.7481C30.7534 38.9123 31.1774 37.0272 32.2469 35.503C33.3164 33.9787 34.9479 32.9409 36.7837 32.619C38.6195 32.2972 40.5081 32.7179 42.0323 33.7874C43.5565 34.8569 44.5944 36.4884 44.9128 38.3275C45.2346 40.1633 44.8139 42.0519 43.7444 43.5761C42.6749 45.1003 41.0434 46.1382 39.2043 46.4566C37.3719 46.7752 35.4834 46.3545 33.9592 45.285C32.4349 44.2155 31.3971 42.584 31.0752 40.7481Z" fill="url(#paint0_radial_1224_18623)"/>
<defs>
<radialGradient id="paint0_radial_1224_18623" cx="0" cy="0" r="1" gradientUnits="userSpaceOnUse" gradientTransform="translate(22.0398 25.6595) rotate(40.9837) scale(24.2383)">
<stop stop-color="white" stop-opacity="0.46"/>
<stop offset="1" stop-color="white" stop-opacity="0.9"/>
</radialGradient>
</defs>
</svg>
