<svg width="38" height="61" viewBox="0 0 38 61" fill="none" xmlns="http://www.w3.org/2000/svg">
<path d="M26.7869 25.1702L37.5255 3.90004C37.6538 3.6514 37.7294 3.38088 37.7499 3.10328C37.7705 2.82568 37.738 2.5474 37.6544 2.28544C37.5666 2.02129 37.4318 1.77564 37.2521 1.56547C37.0702 1.35951 36.8477 1.1806 36.6011 1.05865C36.3545 0.936706 36.084 0.861115 35.8064 0.840582C35.5288 0.820048 35.2505 0.852533 34.9864 0.940347C34.7222 1.02816 34.4808 1.16505 34.2684 1.34898C34.0583 1.52869 33.8899 1.75137 33.7658 2.00218L22.2133 24.8802L20.1479 28.975L15.4969 38.1822C12.8287 37.3441 9.94371 37.5361 7.40452 38.7125C4.86954 39.8911 2.86174 41.9715 1.78079 44.5517C0.695628 47.1298 0.613999 50.0176 1.54733 52.6555C2.48067 55.2934 4.36576 57.4832 6.8304 58.8087C9.293 60.1278 12.1667 60.485 14.8777 59.8029C17.593 59.123 19.9539 57.4543 21.4983 55.124C23.0469 52.7958 23.6707 49.9743 23.2459 47.2094C22.8211 44.4444 21.3834 41.9358 19.2129 40.175L24.7214 29.2649L24.7298 29.2693L26.7869 25.1702ZM8.72064 42.7595C10.3506 41.8556 12.2708 41.6406 14.0608 42.1535C15.8508 42.6665 17.3646 43.8695 18.2685 45.4995C19.1723 47.1295 19.3916 49.0519 18.8786 50.8418C18.3657 52.6318 17.1627 54.1456 15.5285 55.0473C13.8985 55.9512 11.9761 56.1704 10.1861 55.6575C8.39615 55.1445 6.8823 53.9415 5.98062 52.3073C5.08097 50.6795 4.86174 48.7571 5.37469 46.9671C5.88765 45.1772 7.09065 43.6633 8.72064 42.7595Z" fill="url(#paint0_radial_1224_18624)"/>
<defs>
<radialGradient id="paint0_radial_1224_18624" cx="0" cy="0" r="1" gradientUnits="userSpaceOnUse" gradientTransform="translate(20.0303 29.291) rotate(111.919) scale(24.2383)">
<stop stop-color="white" stop-opacity="0.46"/>
<stop offset="1" stop-color="white" stop-opacity="0.9"/>
</radialGradient>
</defs>
</svg>
