<svg width="89" height="89" viewBox="0 0 89 89" fill="none" xmlns="http://www.w3.org/2000/svg">
<circle cx="44.5" cy="44.5" r="44.5" fill="#3F3F46" fill-opacity="0.8"/>
<path d="M33.3438 46.5C33.3438 40.3342 38.3342 35.3438 44.5 35.3438C50.6658 35.3438 55.6562 40.3342 55.6562 46.5C55.6562 52.6658 50.6658 57.6562 44.5 57.6562C38.3342 57.6562 33.3438 52.6658 33.3438 46.5ZM44.5 40.125C40.9838 40.125 38.125 42.9838 38.125 46.5C38.125 50.0162 40.9838 52.875 44.5 52.875C48.0162 52.875 50.875 50.0162 50.875 46.5C50.875 42.9838 48.0162 40.125 44.5 40.125ZM55.1482 24.2692L56.1842 27.375H63.625C67.1412 27.375 70 30.2338 70 33.75V59.25C70 62.7662 67.1412 65.625 63.625 65.625H25.375C21.8538 65.625 19 62.7662 19 59.25V33.75C19 30.2338 21.8538 27.375 25.375 27.375H32.8158L33.8518 24.2692C34.4992 22.3168 36.3221 21 38.384 21H50.616C52.6779 21 54.5008 22.3168 55.1482 24.2692ZM25.375 32.1562C24.4945 32.1562 23.7812 32.8734 23.7812 33.75V59.25C23.7812 60.1266 24.4945 60.8438 25.375 60.8438H63.625C64.5016 60.8438 65.2188 60.1266 65.2188 59.25V33.75C65.2188 32.8734 64.5016 32.1562 63.625 32.1562H52.7377L50.616 25.7812H38.384L36.2623 32.1562H25.375Z" fill="white"/>
</svg>
