<svg width="76" height="34" viewBox="0 0 76 34" fill="none" xmlns="http://www.w3.org/2000/svg">
<path d="M0.0883679 0.02276C1.28841 0.02276 2.40182 -0.0529619 3.49161 0.0718277C3.79268 0.106357 4.24641 0.733334 4.25367 1.0968C4.31607 4.03178 4.28942 6.96918 4.28942 9.90597C4.28942 10.3912 4.28942 10.877 4.28942 11.5325C4.58867 11.3495 4.7807 11.2702 4.92427 11.1387C8.67644 7.70217 13.0423 6.82622 17.6976 8.66898C22.3815 10.5233 25.0233 14.2524 25.6284 19.2301C26.4159 25.71 21.9568 31.7005 15.4956 33.089C9.17135 34.4483 2.64716 30.7483 0.654767 24.6021C0.288879 23.4741 0.0471753 22.2529 0.0368771 21.0722C-0.021883 14.3542 0.00658836 7.63553 0.00901146 0.916883C0.00961723 0.697593 0.0471753 0.477697 0.0883679 0.02276ZM21.4032 20.6209C21.4092 15.925 17.5098 12.0074 12.8363 12.0141C8.20151 12.0207 4.32031 15.8807 4.29305 20.5113C4.26518 25.3175 7.99312 29.0981 12.7951 29.1327C17.571 29.1672 21.3971 25.3835 21.4032 20.6209Z" fill="#232D4E"/>
<path d="M29.6939 20.6289C29.6854 13.5298 35.4069 7.79492 42.4975 7.79492C49.5572 7.79492 55.3781 13.594 55.369 20.6174C55.3599 27.6195 49.6251 33.3217 42.5763 33.3374C35.3681 33.3538 29.7023 27.7643 29.6939 20.6289ZM51.0898 20.6155C51.0935 15.9553 47.1765 12.022 42.5242 12.0141C37.8754 12.0063 33.9258 15.9311 33.9022 20.5822C33.8785 25.2673 37.7585 29.1303 42.4902 29.1321C47.2559 29.1339 51.0862 25.3412 51.0898 20.6155Z" fill="#232D4E"/>
<path d="M75.5624 13.4394C74.4847 13.7356 73.3943 14.0931 72.2754 14.2996C72.0095 14.3487 71.5164 13.9604 71.3559 13.6545C70.7156 12.4302 69.7094 11.9274 68.3942 12.0425C67.1112 12.1552 65.9209 13.2431 65.6798 14.4759C65.4163 15.8244 65.9978 16.8911 67.1136 17.529C68.6947 18.4322 70.3751 19.1616 72.0089 19.9727C75.1638 21.5398 76.5764 24.4766 75.7835 27.8078C75.0469 30.9015 72.0913 33.2695 68.8825 33.3361C65.3084 33.4106 62.1826 31.0257 61.6847 27.7357C62.8974 27.3922 64.1259 27.0439 65.4211 26.6768C65.6749 27.093 65.8736 27.4855 66.1335 27.832C66.9325 28.8994 68.0187 29.295 69.3156 29.0448C70.5211 28.8122 71.3207 28.0374 71.6412 26.8925C71.9919 25.6391 71.52 24.5142 70.4448 23.8812C68.8395 22.9361 67.1257 22.1723 65.4453 21.3575C62.3698 19.8667 61.0068 17.4078 61.4666 14.1294C61.9064 10.9981 64.3574 8.44723 67.4383 7.91415C71.2123 7.26173 75.0814 9.82537 75.5624 13.4394Z" fill="#232D4E"/>
</svg>
